<?xml version="1.0" encoding="UTF-8"?>
<svg width="12px" height="12px" viewBox="0 0 12 12" version="1.1" xmlns="http://www.w3.org/2000/svg" xmlns:xlink="http://www.w3.org/1999/xlink">
    <!-- Generator: Sketch 63 (92445) - https://sketch.com -->
    <title>错误</title>
    <desc>Created with Sketch.</desc>
    <g id="访问控制" stroke="none" stroke-width="1" fill="none" fill-rule="evenodd">
        <g id="访问控制_部门详情_概要_资源配额" transform="translate(-1086.000000, -627.000000)" fill="#EE6B63" fill-rule="nonzero">
            <path d="M1092,627 C1095.31371,627 1098,629.686292 1098,633 C1098,636.313708 1095.31371,639 1092,639 C1088.68629,639 1086,636.313708 1086,633 C1086,629.686292 1088.68629,627 1092,627 Z M1092,628 C1089.23858,628 1087,630.238576 1087,633 C1087,635.761424 1089.23858,638 1092,638 C1094.76142,638 1097,635.761424 1097,633 C1097,630.238576 1094.76142,628 1092,628 Z M1094.50134,630.696356 C1094.74058,630.935827 1094.76299,631.305323 1094.57261,631.569486 L1094.50127,631.653316 L1093.056,633.1 L1094.50127,634.546684 C1094.73889,634.784534 1094.76417,635.153867 1094.57306,635.419327 L1094.50134,635.503644 C1094.23736,635.767881 1093.80452,635.763036 1093.5453,635.503571 L1092.1,634.056 L1090.6547,635.503571 C1090.42141,635.73709 1090.04747,635.764366 1089.78258,635.574857 L1089.69866,635.503644 L1089.62694,635.419327 C1089.45706,635.183363 1089.45816,634.865326 1089.62739,634.630514 L1089.69873,634.546684 L1091.143,633.1 L1089.69873,631.653316 C1089.43471,631.389038 1089.43283,630.962435 1089.69866,630.696356 C1089.96264,630.432119 1090.39548,630.436964 1090.6547,630.696429 L1092.1,632.143 L1093.5453,630.696429 C1093.80452,630.436964 1094.23736,630.432119 1094.50134,630.696356 Z" id="错误"></path>
        </g>
    </g>
</svg>