<?xml version="1.0" encoding="UTF-8"?>
<svg width="12px" height="8px" viewBox="0 0 12 8" version="1.1" xmlns="http://www.w3.org/2000/svg" xmlns:xlink="http://www.w3.org/1999/xlink">
    <!-- Generator: Sketch 54.1 (76490) - https://sketchapp.com -->
    <title>密码可见</title>
    <desc>Created with Sketch.</desc>
    <g id="线上使用" stroke="none" stroke-width="1" fill="none" fill-rule="evenodd">
        <g id="权限管理_用户_新建_错误信息提示" transform="translate(-832.000000, -374.000000)" fill="#CCCCCC" fill-rule="nonzero">
            <g id="弹窗-copy-2" transform="translate(404.000000, 84.000000)">
                <g id="Group-5-Copy-2" transform="translate(30.000000, 228.000000)">
                    <path d="M403.99974,62 C400.078856,62 398,66.2354051 398,66.2354051 C398,66.2354051 400.244635,70 403.99974,70 C407.755119,70 410,66.2354051 410,66.2354051 C410,66.2354051 408.155769,62 403.99974,62 Z M404.003422,68.4098503 C402.807865,68.4098503 401.838624,67.3325122 401.838624,66.0037574 C401.838624,64.6750181 402.807865,63.5976645 404.003422,63.5976645 C405.198979,63.5976645 406.168219,64.6750181 406.168219,66.0037574 C406.168219,67.3325122 405.198965,68.4098503 404.003422,68.4098503 Z M404,65.02263 C403.476563,65.02263 403.052248,65.5020619 403.052248,66.0932952 C403.052248,66.6845285 403.476563,67.1639604 404,67.1639604 C404.523437,67.1639604 404.947752,66.6845285 404.947752,66.0932952 C404.947752,65.5020619 404.523437,65.02263 404,65.02263 Z" id="密码可见"></path>
                </g>
            </g>
        </g>
    </g>
</svg>