<?xml version="1.0" encoding="UTF-8"?>
<svg width="12px" height="12px" viewBox="0 0 12 12" version="1.1" xmlns="http://www.w3.org/2000/svg" xmlns:xlink="http://www.w3.org/1999/xlink">
    <!-- Generator: Sketch 63 (92445) - https://sketch.com -->
    <title>Group 2</title>
    <desc>Created with Sketch.</desc>
    <g id="访问控制" stroke="none" stroke-width="1" fill="none" fill-rule="evenodd">
        <g id="访问控制_部门详情_概要_资源配额" transform="translate(-1030.000000, -627.000000)" fill="#52C51B" fill-rule="nonzero">
            <g id="Group-2" transform="translate(1030.000000, 627.000000)">
                <path d="M6,0 C9.3137085,0 12,2.6862915 12,6 C12,9.3137085 9.3137085,12 6,12 C2.6862915,12 0,9.3137085 0,6 C0,2.6862915 2.6862915,0 6,0 Z M6,1 C3.23857625,1 1,3.23857625 1,6 C1,8.76142375 3.23857625,11 6,11 C8.76142375,11 11,8.76142375 11,6 C11,3.23857625 8.76142375,1 6,1 Z M9.31670617,3.73499087 C9.49534639,3.90333048 9.5226178,4.17206399 9.3934636,4.37085211 L9.33768844,4.44178627 L5.83135325,8.16267235 C5.65230407,8.35267746 5.36265025,8.3697735 5.16355355,8.21695496 L5.09353005,8.15168911 L3.62606564,6.49848991 C3.44274945,6.29197167 3.46155843,5.97594842 3.66807668,5.79263223 C3.85164845,5.6296845 4.1217427,5.62644062 4.30824614,5.77277582 L4.37393436,5.83464327 L5.478,7.078 L8.60991076,3.75597315 C8.79929283,3.55500289 9.11573591,3.5456088 9.31670617,3.73499087 Z" id="形状结合"></path>
            </g>
        </g>
    </g>
</svg>