<?xml version="1.0" encoding="UTF-8"?>
<svg width="30px" height="30px" viewBox="0 0 30 30" version="1.1" xmlns="http://www.w3.org/2000/svg" xmlns:xlink="http://www.w3.org/1999/xlink">
    <!-- Generator: Sketch 55.2 (78181) - https://sketchapp.com -->
    <title>选择文件</title>
    <desc>Created with Sketch.</desc>
    <g id="应用管理_管理员" stroke="none" stroke-width="1" fill="none" fill-rule="evenodd">
        <g id="应用管理_应用管理_导入" transform="translate(-299.000000, -192.000000)" fill="#5F80F0" fill-rule="nonzero">
            <g id="弹窗-copy-2" transform="translate(74.000000, 23.000000)">
                <g id="编组-4" transform="translate(24.000000, 153.000000)">
                    <path d="M229.250657,28.6315789 L222.237181,17.5789474 L209.762819,17.5789474 L202.749343,28.6315789 L212.842105,28.6315789 L212.842105,29.4210526 C212.842105,31.1651097 214.255943,32.5789474 216,32.5789474 C217.744057,32.5789474 219.157895,31.1651097 219.157895,29.4210526 L219.157895,28.6315789 L229.250657,28.6315789 Z M229.421053,30.2105263 L220.671349,30.2105263 C220.295497,32.4508263 218.347102,34.1578947 216,34.1578947 C213.652898,34.1578947 211.704503,32.4508263 211.328651,30.2105263 L202.578947,30.2105263 L202.578947,44.4210526 L229.421053,44.4210526 L229.421053,30.2105263 Z M209.762819,16 L222.237181,16 C222.777747,16 223.280742,16.2765394 223.57037,16.7329684 L231,28.4414218 L231,44.4210526 C231,45.2930812 230.293081,46 229.421053,46 L202.578947,46 C201.706919,46 201,45.2930812 201,44.4210526 L201,28.4414218 L208.42963,16.7329684 C208.719258,16.2765394 209.222253,16 209.762819,16 Z" id="选择文件"></path>
                </g>
            </g>
        </g>
    </g>
</svg>