<?xml version="1.0" encoding="UTF-8"?>
<svg width="12px" height="6px" viewBox="0 0 12 6" version="1.1" xmlns="http://www.w3.org/2000/svg" xmlns:xlink="http://www.w3.org/1999/xlink">
    <!-- Generator: Sketch 54.1 (76490) - https://sketchapp.com -->
    <title>密码不可见</title>
    <desc>Created with Sketch.</desc>
    <g id="线上使用" stroke="none" stroke-width="1" fill="none" fill-rule="evenodd">
        <g id="权限管理_用户_新建_错误信息提示" transform="translate(-832.000000, -348.000000)" fill="#CCCCCC" fill-rule="nonzero">
            <g id="弹窗-copy-2" transform="translate(404.000000, 84.000000)">
                <g id="Group-5-Copy-2" transform="translate(30.000000, 228.000000)">
                    <path d="M409.900706,36.6898123 C410.029206,36.4970693 409.986368,36.2400693 409.815044,36.0901502 C409.622301,35.9402312 409.365301,35.9830692 409.215382,36.1758122 C409.193963,36.1972312 406.816748,39.0027848 403.989775,39.0027848 C401.248479,39.0027848 398.764168,36.1758122 398.742749,36.1544073 C398.59283,35.9830692 398.314425,35.9616643 398.143087,36.1115692 C397.971749,36.2614883 397.950344,36.5398933 398.100249,36.7112314 C398.143087,36.7754743 398.657073,37.3537174 399.470897,37.9962176 L398.378654,39.1312848 C398.207316,39.3026229 398.228735,39.5810279 398.400073,39.7309469 C398.442911,39.8166089 398.549992,39.859447 398.657073,39.859447 C398.764154,39.859447 398.871235,39.8166089 398.956897,39.7309469 L400.134802,38.5102177 C400.691626,38.8957178 401.355531,39.2597989 402.083694,39.5167849 L401.633951,41.0373522 C401.569708,41.2729332 401.698208,41.5085143 401.933775,41.5727573 L402.062275,41.5727573 C402.255018,41.5727573 402.426356,41.4442572 402.46918,41.2515142 L402.918923,39.7309469 C403.261585,39.7951899 403.625666,39.8380279 403.989747,39.8380279 C404.353828,39.8380279 404.717909,39.7951899 405.060571,39.7309469 L405.510314,41.2300952 C405.553152,41.4228382 405.745895,41.5513382 405.917233,41.5513382 C405.960071,41.5513382 406.002895,41.5513382 406.024314,41.5299192 C406.259895,41.4656622 406.388395,41.2300952 406.324152,40.9945141 L405.874409,39.4953659 C406.602572,39.2383658 407.266477,38.8742847 407.823301,38.4887987 L408.979787,39.688123 C409.065449,39.773785 409.17253,39.816623 409.279611,39.816623 C409.386692,39.816623 409.493773,39.773785 409.579435,39.688123 C409.750773,39.5167849 409.750773,39.2597989 409.600854,39.0884608 L408.508611,37.9533936 C409.386706,37.3108935 409.900706,36.6898123 409.900706,36.6898123 Z" id="密码不可见"></path>
                </g>
            </g>
        </g>
    </g>
</svg>